<?xml version="1.0" encoding="UTF-8" standalone="no"?>
<svg
   xmlns:dc="http://purl.org/dc/elements/1.1/"
   xmlns:cc="http://creativecommons.org/ns#"
   xmlns:rdf="http://www.w3.org/1999/02/22-rdf-syntax-ns#"
   xmlns:svg="http://www.w3.org/2000/svg"
   xmlns="http://www.w3.org/2000/svg"
   xmlns:sodipodi="http://sodipodi.sourceforge.net/DTD/sodipodi-0.dtd"
   xmlns:inkscape="http://www.inkscape.org/namespaces/inkscape"
   version="1.0"
   id="Layer_1"
   x="0px"
   y="0px"
   width="72.497704"
   height="72.498413"
   viewBox="0 0 102.751 102.752"
   enable-background="new 0 0 141.73 141.73"
   xml:space="preserve"
   inkscape:version="0.48.4 r9939"
   sodipodi:docname="toilet-by-victor-fedyuk-the-noun-project-cc-by-3.0.svg"><metadata
     id="metadata9"><rdf:RDF><cc:Work
         rdf:about=""><dc:format>image/svg+xml</dc:format><dc:type
           rdf:resource="http://purl.org/dc/dcmitype/StillImage" /></cc:Work></rdf:RDF></metadata><defs
     id="defs7" /><sodipodi:namedview
     pagecolor="#ffffff"
     bordercolor="#666666"
     borderopacity="1"
     objecttolerance="10"
     gridtolerance="10"
     guidetolerance="10"
     inkscape:pageopacity="0"
     inkscape:pageshadow="2"
     inkscape:window-width="640"
     inkscape:window-height="480"
     id="namedview5"
     showgrid="false"
     fit-margin-top="0"
     fit-margin-left="0"
     fit-margin-right="0"
     fit-margin-bottom="0"
     inkscape:zoom="2.36"
     inkscape:cx="39.053835"
     inkscape:cy="36.9202"
     inkscape:window-x="0"
     inkscape:window-y="0"
     inkscape:window-maximized="0"
     inkscape:current-layer="Layer_1" /><path
     d="M 51.376,0 C 23.002,0 0,23.002 0,51.376 c 0,28.374 23.002,51.376 51.376,51.376 28.375,0 51.375,-23.002 51.375,-51.376 C 102.751,23.002 79.751,0 51.376,0 z m 33.098,49.775 c 0,6.927 -6.283,12.957 -15.487,16.005 L 60.423,89.362 H 34.683 L 31.822,60.435 c -0.097,-0.082 -0.191,-0.166 -0.285,-0.249 -3.181,-1.988 -5.309,-5.512 -5.309,-9.532 v -0.88 -0.5 -25.696 c 0,-6.2 5.043,-11.243 11.243,-11.243 6.2,0 11.244,5.043 11.244,11.243 v 25.698 h 35.759 v 0.499 z m 0,-1.7 H 50.021 v -2.326 h 34.454 v 2.326 z"
     id="path3"
     inkscape:connector-curvature="0" /></svg>