<svg xmlns="http://www.w3.org/2000/svg" xmlns:xlink="http://www.w3.org/1999/xlink" version="1.0" id="Layer_1" x="0px" y="0px" width="100.0px" height="100px" viewBox="0 0 141.73 141.73" enable-background="new 0 0 141.73 141.73" xml:space="preserve">
<path d="M66.89,20.44c-28.374,0-51.376,23.002-51.376,51.376s23.002,51.376,51.376,51.376c28.375,0,51.375-23.002,51.375-51.376  S95.265,20.44,66.89,20.44z M99.988,70.215c0,6.927-6.283,12.957-15.487,16.005l-8.564,23.582H50.197l-2.861-28.927  c-0.097-0.082-0.191-0.166-0.285-0.249c-3.181-1.988-5.309-5.512-5.309-9.532v-0.88v-0.5V44.018c0-6.2,5.043-11.243,11.243-11.243  s11.244,5.043,11.244,11.243v25.698h35.759V70.215z M99.988,68.515H65.535v-2.326h34.454V68.515z"/>
</svg>